<svg xmlns="http://www.w3.org/2000/svg" viewBox="0 0 64 64">
  <rect width="64" height="64" rx="16" fill="#050816"/>
  <rect x="10" y="10" width="44" height="44" rx="12" fill="url(#g)"/>
  <path d="M32 18c6 0 10 4 10 10v8c0 6-4 10-10 10s-10-4-10-10v-8c0-6 4-10 10-10z" fill="#F8FAFC"/>
  <path d="M21 40h22c5 0 9 4 9 9v1c0 5-4 9-9 9H21c-5 0-9-4-9-9v-1c0-5 4-9 9-9z" fill="#F8FAFC"/>
  <path d="M38 18l8 8-8 8" stroke="#F8FAFC" stroke-width="3" stroke-linecap="round" stroke-linejoin="round"/>
  <defs>
    <linearGradient id="g" x1="10" y1="10" x2="54" y2="54" gradientUnits="userSpaceOnUse">
      <stop stop-color="#2563EB"/>
      <stop offset="1" stop-color="#38BDF8"/>
    </linearGradient>
  </defs>
</svg>