<svg width="880" height="220" viewBox="0 0 880 220" fill="none" xmlns="http://www.w3.org/2000/svg">
  <rect width="880" height="220" rx="48" fill="#050816"/>
  <rect x="24" y="24" width="172" height="172" rx="38" fill="url(#paint0_linear)"/>
  <path d="M86 64C98 64 108 74 108 86V110C108 122 98 132 86 132C74 132 64 122 64 110V86C64 74 74 64 86 64Z" fill="#F8FAFC"/>
  <path d="M60 144H112C124 144 134 154 134 166V166C134 178 124 188 112 188H60C48 188 38 178 38 166V166C38 154 48 144 60 144Z" fill="#F8FAFC"/>
  <path d="M102 64L134 96L102 128" stroke="#F8FAFC" stroke-width="14" stroke-linecap="round" stroke-linejoin="round"/>
  <rect x="228" y="74" width="18" height="72" rx="9" fill="#60A5FA"/>
  <rect x="258" y="58" width="18" height="88" rx="9" fill="#38BDF8"/>
  <rect x="288" y="82" width="18" height="64" rx="9" fill="#93C5FD"/>
  <path d="M336 82H410C420.5 82 429 90.5 429 101V101C429 111.5 420.5 120 410 120H336V82Z" fill="#E2E8F0"/>
  <path d="M330 120H424C434.5 120 443 128.5 443 139V139C443 149.5 434.5 158 424 158H330V120Z" fill="#F8FAFC"/>
  <text x="476" y="108" fill="#F8FAFC" font-family="Inter, Arial, sans-serif" font-size="54" font-weight="700">THE HIRING</text>
  <text x="476" y="156" fill="#60A5FA" font-family="Inter, Arial, sans-serif" font-size="54" font-weight="700">REBELS</text>
  <defs>
    <linearGradient id="paint0_linear" x1="24" y1="24" x2="196" y2="196" gradientUnits="userSpaceOnUse">
      <stop stop-color="#2563EB"/>
      <stop offset="1" stop-color="#38BDF8"/>
    </linearGradient>
  </defs>
</svg>
