<svg width="160" height="160" viewBox="0 0 160 160" fill="none" xmlns="http://www.w3.org/2000/svg">
  <rect width="160" height="160" rx="36" fill="url(#paint0_linear)"/>
  <path d="M82 44C92 44 100 52 100 62V84C100 94 92 102 82 102C72 102 64 94 64 84V62C64 52 72 44 82 44Z" fill="#F8FAFC"/>
  <path d="M58 112H106C116 112 124 120 124 130V130C124 140 116 148 106 148H58C48 148 40 140 40 130V130C40 120 48 112 58 112Z" fill="#F8FAFC"/>
  <path d="M104 44L126 66L104 88" stroke="#F8FAFC" stroke-width="10" stroke-linecap="round" stroke-linejoin="round"/>
  <defs>
    <linearGradient id="paint0_linear" x1="16" y1="16" x2="144" y2="144" gradientUnits="userSpaceOnUse">
      <stop stop-color="#2563EB"/>
      <stop offset="1" stop-color="#38BDF8"/>
    </linearGradient>
  </defs>
</svg>
